<?xml version="1.0" standalone="no"?>
<!DOCTYPE svg PUBLIC "-//W3C//DTD SVG 20010904//EN"
 "http://www.w3.org/TR/2001/REC-SVG-20010904/DTD/svg10.dtd">
<svg version="1.0" xmlns="http://www.w3.org/2000/svg"
 width="200.000000pt" height="200.000000pt" viewBox="0 0 200.000000 200.000000"
 preserveAspectRatio="xMidYMid meet">
<metadata>
Created by potrace 1.14, written by Peter Selinger 2001-2017
</metadata>
<g transform="translate(0.000000,200.000000) scale(0.100000,-0.100000)"
fill="#000000" stroke="none">
<path d="M0 1000 l0 -1000 474 0 474 0 7 87 c11 141 20 182 44 204 12 12 21
32 21 49 0 20 5 30 15 30 8 0 19 17 26 41 14 44 79 99 118 99 12 0 21 4 21 10
0 12 78 35 109 32 13 -2 31 4 41 13 15 14 22 14 42 3 28 -16 38 -28 38 -49 0
-14 -5 -15 -40 -6 -37 10 -42 9 -67 -15 -52 -52 -40 -158 18 -158 23 0 79 74
79 106 0 13 4 25 8 28 15 9 28 -9 40 -59 25 -103 -16 -300 -79 -377 l-30 -38
321 0 320 0 0 1000 0 1000 -1000 0 -1000 0 0 -1000z m1187 519 c163 -43 225
-86 278 -192 31 -63 37 -87 46 -187 16 -176 -5 -279 -76 -388 -47 -70 -98
-105 -210 -142 -122 -41 -177 -45 -308 -26 -264 40 -398 133 -444 309 -19 72
-24 308 -8 314 6 2 9 18 7 37 -8 65 64 183 136 223 46 26 158 60 237 73 86 13
250 3 342 -21z"/>
<path d="M1035 1450 c-4 -6 8 -10 29 -10 20 0 36 5 36 10 0 6 -13 10 -29 10
-17 0 -33 -4 -36 -10z"/>
<path d="M1177 1414 c-13 -13 5 -24 38 -24 19 0 37 5 40 10 3 6 -5 10 -19 10
-13 0 -31 2 -38 5 -8 3 -17 3 -21 -1z"/>
<path d="M875 1400 c3 -5 17 -10 31 -10 14 0 22 4 19 10 -3 6 -17 10 -31 10
-14 0 -22 -4 -19 -10z"/>
<path d="M1035 1360 c-4 -6 8 -10 29 -10 20 0 36 5 36 10 0 6 -13 10 -29 10
-17 0 -33 -4 -36 -10z"/>
<path d="M536 1235 c-11 -29 -6 -69 12 -104 20 -40 52 -55 77 -37 24 17 22 92
-3 125 -23 31 -76 41 -86 16z"/>
<path d="M1347 1202 c-22 -24 -24 -102 -2 -102 18 0 19 12 3 28 -16 16 -2 28
15 14 10 -9 18 -8 32 2 14 10 16 18 8 42 -12 35 -33 41 -56 16z"/>
<path d="M765 1160 c-37 -41 4 -160 56 -160 69 0 62 137 -8 169 -30 14 -27 14
-48 -9z"/>
<path d="M1110 1134 c-8 -8 -14 -34 -14 -57 -1 -32 3 -42 17 -45 10 -2 17 3
17 11 0 8 9 17 19 20 16 4 20 13 19 46 0 36 -3 41 -23 41 -12 0 -28 -7 -35
-16z m12 -76 c-6 -6 -14 -9 -17 -6 -3 3 -3 13 1 22 5 12 10 14 17 7 8 -8 8
-14 -1 -23z"/>
<path d="M1226 1008 c-22 -35 -30 -75 -15 -83 7 -5 17 -2 23 7 6 8 19 17 29
21 12 4 17 17 17 42 0 28 -4 35 -20 35 -11 0 -26 -10 -34 -22z"/>
<path d="M540 924 c-16 -40 -12 -79 10 -104 11 -13 20 -26 20 -30 0 -5 7 -10
15 -14 65 -24 83 117 20 158 -35 23 -54 20 -65 -10z"/>
<path d="M1325 873 c-13 -26 -15 -44 -9 -62 11 -29 44 -42 44 -17 0 9 9 21 20
28 35 22 23 88 -15 88 -16 0 -28 -10 -40 -37z"/>
<path d="M765 853 c-13 -13 -16 -29 -13 -70 5 -60 28 -93 66 -93 68 0 68 117
0 164 -28 20 -33 20 -53 -1z"/>
<path d="M1100 808 c-23 -37 -24 -51 -10 -79 13 -24 29 -24 37 -1 4 9 16 24
26 33 15 12 18 22 12 47 -9 43 -39 43 -65 0z"/>
<path d="M1084 394 c-58 -61 -40 -144 31 -144 27 0 78 77 70 107 -21 84 -48
94 -101 37z m56 -4 c0 -5 -4 -10 -10 -10 -5 0 -10 5 -10 10 0 6 5 10 10 10 6
0 10 -4 10 -10z"/>
<path d="M1200 295 c-16 -17 -26 -43 -30 -78 -9 -65 -6 -72 33 -84 34 -9 43
-36 15 -41 -10 -2 -18 3 -18 10 0 23 -52 40 -88 27 -36 -12 -58 -42 -67 -93
l-7 -36 137 0 137 0 30 30 c16 17 35 30 43 30 7 0 16 19 20 48 5 26 9 53 11
61 1 7 -9 24 -24 37 -30 26 -56 24 -86 -8 -24 -25 -27 -21 -16 26 10 44 4 66
-16 66 -8 0 -14 7 -14 15 0 23 -34 18 -60 -10z m185 -105 c-3 -5 -16 -10 -28
-10 -18 0 -19 2 -7 10 20 13 43 13 35 0z m-215 -80 c0 -5 -6 -10 -14 -10 -8 0
-23 -3 -33 -6 -10 -3 -7 2 7 10 30 18 40 20 40 6z"/>
<path d="M1420 230 c0 -5 5 -10 10 -10 6 0 10 5 10 10 0 6 -4 10 -10 10 -5 0
-10 -4 -10 -10z"/>
</g>
</svg>
