<?xml version="1.0" standalone="no"?>
<!DOCTYPE svg PUBLIC "-//W3C//DTD SVG 20010904//EN"
 "http://www.w3.org/TR/2001/REC-SVG-20010904/DTD/svg10.dtd">
<svg version="1.0" xmlns="http://www.w3.org/2000/svg"
 width="260.000000pt" height="260.000000pt" viewBox="0 0 260.000000 260.000000"
 preserveAspectRatio="xMidYMid meet">
<metadata>
Created by potrace 1.14, written by Peter Selinger 2001-2017
</metadata>
<g transform="translate(0.000000,260.000000) scale(0.100000,-0.100000)"
fill="#000000" stroke="none">
<path d="M10 1717 l0 -822 125 -80 c208 -133 249 -159 712 -459 246 -159 451
-289 457 -289 6 0 49 24 96 55 47 30 202 130 345 223 143 92 296 191 340 220
107 70 255 165 397 255 l117 75 1 822 0 823 -88 -52 c-114 -68 -413 -246 -432
-258 -8 -5 -35 -21 -60 -36 -25 -15 -194 -116 -377 -225 -183 -110 -335 -199
-339 -199 -3 0 -88 49 -187 109 -100 60 -196 117 -214 127 -18 11 -193 115
-390 233 -197 118 -391 233 -430 257 l-73 43 0 -822z"/>
</g>
</svg>
