<svg xmlns="http://www.w3.org/2000/svg" width="115.999" height="19.134" viewBox="0 0 115.999 19.134">
  <g id="그룹_377" data-name="그룹 377" transform="translate(15932.999 8476.001)">
    <path id="icon_star_on" d="M532.071,252.947l2.2,4.463a1.146,1.146,0,0,0,.862.627l4.925.716a1.146,1.146,0,0,1,.635,1.954l-3.564,3.474a1.146,1.146,0,0,0-.329,1.014l.841,4.905a1.146,1.146,0,0,1-1.663,1.208l-4.4-2.316a1.146,1.146,0,0,0-1.066,0l-4.4,2.316a1.146,1.146,0,0,1-1.663-1.208l.841-4.905a1.146,1.146,0,0,0-.329-1.014l-3.564-3.474a1.146,1.146,0,0,1,.635-1.954l4.925-.716a1.146,1.146,0,0,0,.863-.627l2.2-4.463A1.146,1.146,0,0,1,532.071,252.947Z" transform="translate(-16454.043 -8728.309)" fill="#ffd85d"/>
    <path id="icon_star_on-2" data-name="icon_star_on" d="M532.071,252.947l2.2,4.463a1.146,1.146,0,0,0,.862.627l4.925.716a1.146,1.146,0,0,1,.635,1.954l-3.564,3.474a1.146,1.146,0,0,0-.329,1.014l.841,4.905a1.146,1.146,0,0,1-1.663,1.208l-4.4-2.316a1.146,1.146,0,0,0-1.066,0l-4.4,2.316a1.146,1.146,0,0,1-1.663-1.208l.841-4.905a1.146,1.146,0,0,0-.329-1.014l-3.564-3.474a1.146,1.146,0,0,1,.635-1.954l4.925-.716a1.146,1.146,0,0,0,.863-.627l2.2-4.463A1.146,1.146,0,0,1,532.071,252.947Z" transform="translate(-16430.043 -8728.309)" fill="#e5e5e5"/>
    <path id="icon_star_on-3" data-name="icon_star_on" d="M532.071,252.947l2.2,4.463a1.146,1.146,0,0,0,.862.627l4.925.716a1.146,1.146,0,0,1,.635,1.954l-3.564,3.474a1.146,1.146,0,0,0-.329,1.014l.841,4.905a1.146,1.146,0,0,1-1.663,1.208l-4.4-2.316a1.146,1.146,0,0,0-1.066,0l-4.4,2.316a1.146,1.146,0,0,1-1.663-1.208l.841-4.905a1.146,1.146,0,0,0-.329-1.014l-3.564-3.474a1.146,1.146,0,0,1,.635-1.954l4.925-.716a1.146,1.146,0,0,0,.863-.627l2.2-4.463A1.146,1.146,0,0,1,532.071,252.947Z" transform="translate(-16406.043 -8728.309)" fill="#e5e5e5"/>
    <path id="icon_star_on-4" data-name="icon_star_on" d="M532.071,252.947l2.2,4.463a1.146,1.146,0,0,0,.862.627l4.925.716a1.146,1.146,0,0,1,.635,1.954l-3.564,3.474a1.146,1.146,0,0,0-.329,1.014l.841,4.905a1.146,1.146,0,0,1-1.663,1.208l-4.4-2.316a1.146,1.146,0,0,0-1.066,0l-4.4,2.316a1.146,1.146,0,0,1-1.663-1.208l.841-4.905a1.146,1.146,0,0,0-.329-1.014l-3.564-3.474a1.146,1.146,0,0,1,.635-1.954l4.925-.716a1.146,1.146,0,0,0,.863-.627l2.2-4.463A1.146,1.146,0,0,1,532.071,252.947Z" transform="translate(-16382.043 -8728.309)" fill="#e5e5e5"/>
    <path id="icon_star_off" d="M532.071,252.947l2.2,4.463a1.146,1.146,0,0,0,.862.627l4.925.716a1.146,1.146,0,0,1,.635,1.954l-3.564,3.474a1.146,1.146,0,0,0-.329,1.014l.841,4.905a1.146,1.146,0,0,1-1.663,1.208l-4.4-2.316a1.146,1.146,0,0,0-1.066,0l-4.4,2.316a1.146,1.146,0,0,1-1.663-1.208l.841-4.905a1.146,1.146,0,0,0-.329-1.014l-3.564-3.474a1.146,1.146,0,0,1,.635-1.954l4.925-.716a1.146,1.146,0,0,0,.863-.627l2.2-4.463A1.146,1.146,0,0,1,532.071,252.947Z" transform="translate(-16358.043 -8728.309)" fill="#e5e5e5"/>
  </g>
</svg>
